<svg id="Layer_1" data-name="Layer 1" xmlns="http://www.w3.org/2000/svg" viewBox="0 0 125.6 49.58"><defs><style>.cls-1,.cls-2{fill:#00df81;}.cls-1{stroke:#000;stroke-miterlimit:10;stroke-width:0.5px;}</style></defs><title>one-concept-logo-2</title><line class="cls-1" x1="0.42" y1="13.09" y2="13.09"/><path class="cls-2" d="M252.91,138.15a11,11,0,1,1-.75-4A11,11,0,0,1,252.91,138.15Z" transform="translate(-217.2 -119.21)"/><path class="cls-2" d="M260.45,134.17a19,19,0,0,0-3.08-7c-.32-.43-.65-.86-1-1.27a18.94,18.94,0,0,0-28.88,0c-.35.41-.68.84-1,1.27a18.94,18.94,0,0,0,0,22,18.92,18.92,0,0,0,3.95,4.09l.05,0a18.71,18.71,0,0,0,9.13,3.7c0,.05,0,.1,0,.14a5,5,0,0,1-.36,1.36,5.13,5.13,0,0,1-.89,1.43,2.65,2.65,0,0,1-.33.34,5.18,5.18,0,0,0,3.59,8.58h.6a5.17,5.17,0,0,0,3.54-8.64h0l-.17-.18,0,0a5.23,5.23,0,0,1-.95-1.5,5,5,0,0,1-.36-1.36.61.61,0,0,1,0-.14,18.81,18.81,0,0,0,9.12-3.7l0,0a19.06,19.06,0,0,0,3.94-4.08,18.85,18.85,0,0,0,3.09-7,19.07,19.07,0,0,0,0-8Zm-4,8a15.14,15.14,0,0,1-7.12,9.15,15.31,15.31,0,0,1-3.57,1.46,15.14,15.14,0,0,1-11.31-1.46,15.14,15.14,0,0,1-7.12-9.15,15.21,15.21,0,0,1,0-8,15.13,15.13,0,0,1,4.2-7,17,17,0,0,1,1.54-1.27,15.12,15.12,0,0,1,17.64,0,15.74,15.74,0,0,1,1.54,1.27,15.05,15.05,0,0,1,4.2,7,15.21,15.21,0,0,1,0,8Z" transform="translate(-217.2 -119.21)"/><rect class="cls-2" x="94" width="31.59" height="6.69"/><rect class="cls-2" x="94" y="29.91" width="31.59" height="7.96"/><rect class="cls-2" x="94" y="14.95" width="31.59" height="7.96"/><polygon class="cls-2" points="87.81 0 87.81 39.23 76.8 39.23 75.88 37.87 73.29 34.03 70.52 29.91 65.81 22.92 74.87 22.92 79.33 29.51 79.33 29.91 79.6 29.91 79.33 29.51 79.33 0 87.81 0"/><polygon class="cls-2" points="69.48 14.95 60.45 14.95 58.71 12.37 58.71 39.23 50.05 39.23 50.05 3.85 61.96 3.85 63.89 6.69 64.75 7.96 69.48 14.95"/><polygon class="cls-2" points="74.12 21.82 65.07 21.82 63.13 18.94 61.13 15.96 70.16 15.96 72.18 18.94 74.12 21.82"/></svg>